ISO-10303-21;
HEADER;
/* Generated by software containing ST-Developer
 * from STEP Tools, Inc. (www.steptools.com) 
 */

FILE_DESCRIPTION(
/* description */ (''),
/* implementation_level */ '2;1');

FILE_NAME(
/* name */ '2r_arm.step',
/* time_stamp */ '2026-07-31T14:56:50+05:30',
/* author */ (''),
/* organization */ (''),
/* preprocessor_version */ 'ST-DEVELOPER v20.1',
/* originating_system */ 'Autodesk Translation Framework v15.8.0.0',
/* authorisation */ '');

FILE_SCHEMA (('AUTOMOTIVE_DESIGN { 1 0 10303 214 3 1 1 }'));
ENDSEC;

DATA;
#10=MECHANICAL_DESIGN_GEOMETRIC_PRESENTATION_REPRESENTATION('',(#47,#48,
#49,#50,#51,#52),#1049);
#11=ITEM_DEFINED_TRANSFORMATION($,$,#647,#699);
#12=ITEM_DEFINED_TRANSFORMATION($,$,#657,#700);
#13=ITEM_DEFINED_TRANSFORMATION($,$,#667,#701);
#14=ITEM_DEFINED_TRANSFORMATION($,$,#680,#702);
#15=ITEM_DEFINED_TRANSFORMATION($,$,#686,#703);
#16=ITEM_DEFINED_TRANSFORMATION($,$,#692,#704);
#17=(
REPRESENTATION_RELATIONSHIP($,$,#1075,#1074)
REPRESENTATION_RELATIONSHIP_WITH_TRANSFORMATION(#11)
SHAPE_REPRESENTATION_RELATIONSHIP()
);
#18=(
REPRESENTATION_RELATIONSHIP($,$,#1076,#1074)
REPRESENTATION_RELATIONSHIP_WITH_TRANSFORMATION(#12)
SHAPE_REPRESENTATION_RELATIONSHIP()
);
#19=(
REPRESENTATION_RELATIONSHIP($,$,#1077,#1074)
REPRESENTATION_RELATIONSHIP_WITH_TRANSFORMATION(#13)
SHAPE_REPRESENTATION_RELATIONSHIP()
);
#20=(
REPRESENTATION_RELATIONSHIP($,$,#1078,#1074)
REPRESENTATION_RELATIONSHIP_WITH_TRANSFORMATION(#14)
SHAPE_REPRESENTATION_RELATIONSHIP()
);
#21=(
REPRESENTATION_RELATIONSHIP($,$,#1079,#1074)
REPRESENTATION_RELATIONSHIP_WITH_TRANSFORMATION(#15)
SHAPE_REPRESENTATION_RELATIONSHIP()
);
#22=(
REPRESENTATION_RELATIONSHIP($,$,#1080,#1074)
REPRESENTATION_RELATIONSHIP_WITH_TRANSFORMATION(#16)
SHAPE_REPRESENTATION_RELATIONSHIP()
);
#23=CONTEXT_DEPENDENT_SHAPE_REPRESENTATION(#17,#1068);
#24=CONTEXT_DEPENDENT_SHAPE_REPRESENTATION(#18,#1069);
#25=CONTEXT_DEPENDENT_SHAPE_REPRESENTATION(#19,#1070);
#26=CONTEXT_DEPENDENT_SHAPE_REPRESENTATION(#20,#1071);
#27=CONTEXT_DEPENDENT_SHAPE_REPRESENTATION(#21,#1072);
#28=CONTEXT_DEPENDENT_SHAPE_REPRESENTATION(#22,#1073);
#29=NEXT_ASSEMBLY_USAGE_OCCURRENCE('Base:1','Base:1','Base:1',#1082,#1083,
'Base:1');
#30=NEXT_ASSEMBLY_USAGE_OCCURRENCE('Link2:1','Link2:1','Link2:1',#1082,
#1084,'Link2:1');
#31=NEXT_ASSEMBLY_USAGE_OCCURRENCE('Link1:1','Link1:1','Link1:1',#1082,
#1085,'Link1:1');
#32=NEXT_ASSEMBLY_USAGE_OCCURRENCE('Pin1:1','Pin1:1','Pin1:1',#1082,#1086,
'Pin1:1');
#33=NEXT_ASSEMBLY_USAGE_OCCURRENCE('Pin2:1','Pin2:1','Pin2:1',#1082,#1087,
'Pin2:1');
#34=NEXT_ASSEMBLY_USAGE_OCCURRENCE('Stop:1','Stop:1','Stop:1',#1082,#1088,
'Stop:1');
#35=SHAPE_REPRESENTATION_RELATIONSHIP('SRR','None',#1075,#41);
#36=SHAPE_REPRESENTATION_RELATIONSHIP('SRR','None',#1076,#42);
#37=SHAPE_REPRESENTATION_RELATIONSHIP('SRR','None',#1077,#43);
#38=SHAPE_REPRESENTATION_RELATIONSHIP('SRR','None',#1078,#44);
#39=SHAPE_REPRESENTATION_RELATIONSHIP('SRR','None',#1079,#45);
#40=SHAPE_REPRESENTATION_RELATIONSHIP('SRR','None',#1080,#46);
#41=ADVANCED_BREP_SHAPE_REPRESENTATION('',(#53),#1043);
#42=ADVANCED_BREP_SHAPE_REPRESENTATION('',(#54),#1044);
#43=ADVANCED_BREP_SHAPE_REPRESENTATION('',(#55),#1045);
#44=ADVANCED_BREP_SHAPE_REPRESENTATION('',(#56),#1046);
#45=ADVANCED_BREP_SHAPE_REPRESENTATION('',(#57),#1047);
#46=ADVANCED_BREP_SHAPE_REPRESENTATION('',(#58),#1048);
#47=STYLED_ITEM('',(#1113),#53);
#48=STYLED_ITEM('',(#1113),#54);
#49=STYLED_ITEM('',(#1113),#55);
#50=STYLED_ITEM('',(#1113),#56);
#51=STYLED_ITEM('',(#1113),#57);
#52=STYLED_ITEM('',(#1113),#58);
#53=MANIFOLD_SOLID_BREP('Body1',#573);
#54=MANIFOLD_SOLID_BREP('Body1',#574);
#55=MANIFOLD_SOLID_BREP('Body1',#575);
#56=MANIFOLD_SOLID_BREP('Body1',#576);
#57=MANIFOLD_SOLID_BREP('Body1',#577);
#58=MANIFOLD_SOLID_BREP('Body1',#578);
#59=CYLINDRICAL_SURFACE('',#650,5.);
#60=CYLINDRICAL_SURFACE('',#658,5.00000000000004);
#61=CYLINDRICAL_SURFACE('',#668,5.);
#62=CYLINDRICAL_SURFACE('',#671,5.);
#63=CYLINDRICAL_SURFACE('',#683,5.);
#64=CYLINDRICAL_SURFACE('',#689,4.97499999999999);
#65=FACE_BOUND('',#120,.T.);
#66=FACE_BOUND('',#127,.T.);
#67=FACE_BOUND('',#134,.T.);
#68=FACE_BOUND('',#136,.T.);
#69=FACE_BOUND('',#144,.T.);
#70=FACE_BOUND('',#145,.T.);
#71=FACE_BOUND('',#147,.T.);
#72=FACE_BOUND('',#148,.T.);
#73=CIRCLE('',#649,5.);
#74=CIRCLE('',#651,5.);
#75=CIRCLE('',#659,5.00000000000004);
#76=CIRCLE('',#660,5.00000000000004);
#77=CIRCLE('',#669,5.);
#78=CIRCLE('',#670,5.);
#79=CIRCLE('',#672,5.);
#80=CIRCLE('',#673,5.);
#81=CIRCLE('',#682,5.);
#82=CIRCLE('',#684,5.);
#83=CIRCLE('',#688,4.97499999999999);
#84=CIRCLE('',#690,4.97499999999999);
#85=FACE_OUTER_BOUND('',#119,.T.);
#86=FACE_OUTER_BOUND('',#121,.T.);
#87=FACE_OUTER_BOUND('',#122,.T.);
#88=FACE_OUTER_BOUND('',#123,.T.);
#89=FACE_OUTER_BOUND('',#124,.T.);
#90=FACE_OUTER_BOUND('',#125,.T.);
#91=FACE_OUTER_BOUND('',#126,.T.);
#92=FACE_OUTER_BOUND('',#128,.T.);
#93=FACE_OUTER_BOUND('',#129,.T.);
#94=FACE_OUTER_BOUND('',#130,.T.);
#95=FACE_OUTER_BOUND('',#131,.T.);
#96=FACE_OUTER_BOUND('',#132,.T.);
#97=FACE_OUTER_BOUND('',#133,.T.);
#98=FACE_OUTER_BOUND('',#135,.T.);
#99=FACE_OUTER_BOUND('',#137,.T.);
#100=FACE_OUTER_BOUND('',#138,.T.);
#101=FACE_OUTER_BOUND('',#139,.T.);
#102=FACE_OUTER_BOUND('',#140,.T.);
#103=FACE_OUTER_BOUND('',#141,.T.);
#104=FACE_OUTER_BOUND('',#142,.T.);
#105=FACE_OUTER_BOUND('',#143,.T.);
#106=FACE_OUTER_BOUND('',#146,.T.);
#107=FACE_OUTER_BOUND('',#149,.T.);
#108=FACE_OUTER_BOUND('',#150,.T.);
#109=FACE_OUTER_BOUND('',#151,.T.);
#110=FACE_OUTER_BOUND('',#152,.T.);
#111=FACE_OUTER_BOUND('',#153,.T.);
#112=FACE_OUTER_BOUND('',#154,.T.);
#113=FACE_OUTER_BOUND('',#155,.T.);
#114=FACE_OUTER_BOUND('',#156,.T.);
#115=FACE_OUTER_BOUND('',#157,.T.);
#116=FACE_OUTER_BOUND('',#158,.T.);
#117=FACE_OUTER_BOUND('',#159,.T.);
#118=FACE_OUTER_BOUND('',#160,.T.);
#119=EDGE_LOOP('',(#379,#380,#381,#382));
#120=EDGE_LOOP('',(#383));
#121=EDGE_LOOP('',(#384,#385,#386,#387));
#122=EDGE_LOOP('',(#388,#389,#390,#391));
#123=EDGE_LOOP('',(#392,#393,#394,#395));
#124=EDGE_LOOP('',(#396,#397,#398,#399));
#125=EDGE_LOOP('',(#400,#401,#402,#403));
#126=EDGE_LOOP('',(#404,#405,#406,#407));
#127=EDGE_LOOP('',(#408));
#128=EDGE_LOOP('',(#409,#410,#411,#412));
#129=EDGE_LOOP('',(#413,#414,#415,#416));
#130=EDGE_LOOP('',(#417,#418,#419,#420));
#131=EDGE_LOOP('',(#421,#422,#423,#424));
#132=EDGE_LOOP('',(#425,#426,#427,#428));
#133=EDGE_LOOP('',(#429,#430,#431,#432));
#134=EDGE_LOOP('',(#433));
#135=EDGE_LOOP('',(#434,#435,#436,#437));
#136=EDGE_LOOP('',(#438));
#137=EDGE_LOOP('',(#439,#440,#441,#442));
#138=EDGE_LOOP('',(#443,#444,#445,#446));
#139=EDGE_LOOP('',(#447,#448,#449,#450));
#140=EDGE_LOOP('',(#451,#452,#453,#454));
#141=EDGE_LOOP('',(#455,#456,#457,#458));
#142=EDGE_LOOP('',(#459,#460,#461,#462));
#143=EDGE_LOOP('',(#463,#464,#465,#466));
#144=EDGE_LOOP('',(#467));
#145=EDGE_LOOP('',(#468));
#146=EDGE_LOOP('',(#469,#470,#471,#472));
#147=EDGE_LOOP('',(#473));
#148=EDGE_LOOP('',(#474));
#149=EDGE_LOOP('',(#475));
#150=EDGE_LOOP('',(#476,#477,#478,#479));
#151=EDGE_LOOP('',(#480));
#152=EDGE_LOOP('',(#481));
#153=EDGE_LOOP('',(#482,#483,#484,#485));
#154=EDGE_LOOP('',(#486));
#155=EDGE_LOOP('',(#487,#488,#489,#490));
#156=EDGE_LOOP('',(#491,#492,#493,#494));
#157=EDGE_LOOP('',(#495,#496,#497,#498));
#158=EDGE_LOOP('',(#499,#500,#501,#502));
#159=EDGE_LOOP('',(#503,#504,#505,#506));
#160=EDGE_LOOP('',(#507,#508,#509,#510));
#161=LINE('',#882,#215);
#162=LINE('',#884,#216);
#163=LINE('',#886,#217);
#164=LINE('',#887,#218);
#165=LINE('',#893,#219);
#166=LINE('',#896,#220);
#167=LINE('',#898,#221);
#168=LINE('',#899,#222);
#169=LINE('',#902,#223);
#170=LINE('',#903,#224);
#171=LINE('',#906,#225);
#172=LINE('',#907,#226);
#173=LINE('',#909,#227);
#174=LINE('',#916,#228);
#175=LINE('',#921,#229);
#176=LINE('',#923,#230);
#177=LINE('',#925,#231);
#178=LINE('',#926,#232);
#179=LINE('',#929,#233);
#180=LINE('',#931,#234);
#181=LINE('',#932,#235);
#182=LINE('',#935,#236);
#183=LINE('',#937,#237);
#184=LINE('',#938,#238);
#185=LINE('',#940,#239);
#186=LINE('',#941,#240);
#187=LINE('',#949,#241);
#188=LINE('',#955,#242);
#189=LINE('',#960,#243);
#190=LINE('',#962,#244);
#191=LINE('',#964,#245);
#192=LINE('',#965,#246);
#193=LINE('',#968,#247);
#194=LINE('',#970,#248);
#195=LINE('',#971,#249);
#196=LINE('',#974,#250);
#197=LINE('',#976,#251);
#198=LINE('',#977,#252);
#199=LINE('',#979,#253);
#200=LINE('',#980,#254);
#201=LINE('',#990,#255);
#202=LINE('',#999,#256);
#203=LINE('',#1005,#257);
#204=LINE('',#1007,#258);
#205=LINE('',#1009,#259);
#206=LINE('',#1010,#260);
#207=LINE('',#1013,#261);
#208=LINE('',#1015,#262);
#209=LINE('',#1016,#263);
#210=LINE('',#1019,#264);
#211=LINE('',#1020,#265);
#212=LINE('',#1023,#266);
#213=LINE('',#1024,#267);
#214=LINE('',#1026,#268);
#215=VECTOR('',#711,10.);
#216=VECTOR('',#712,10.);
#217=VECTOR('',#713,10.);
#218=VECTOR('',#714,10.);
#219=VECTOR('',#721,5.);
#220=VECTOR('',#724,10.);
#221=VECTOR('',#725,10.);
#222=VECTOR('',#726,10.);
#223=VECTOR('',#729,10.);
#224=VECTOR('',#730,10.);
#225=VECTOR('',#733,10.);
#226=VECTOR('',#734,10.);
#227=VECTOR('',#737,10.);
#228=VECTOR('',#746,5.00000000000004);
#229=VECTOR('',#751,10.);
#230=VECTOR('',#752,10.);
#231=VECTOR('',#753,10.);
#232=VECTOR('',#754,10.);
#233=VECTOR('',#757,10.);
#234=VECTOR('',#758,10.);
#235=VECTOR('',#759,10.);
#236=VECTOR('',#762,10.);
#237=VECTOR('',#763,10.);
#238=VECTOR('',#764,10.);
#239=VECTOR('',#767,10.);
#240=VECTOR('',#768,10.);
#241=VECTOR('',#779,5.);
#242=VECTOR('',#786,5.);
#243=VECTOR('',#791,10.);
#244=VECTOR('',#792,10.);
#245=VECTOR('',#793,10.);
#246=VECTOR('',#794,10.);
#247=VECTOR('',#797,10.);
#248=VECTOR('',#798,10.);
#249=VECTOR('',#799,10.);
#250=VECTOR('',#802,10.);
#251=VECTOR('',#803,10.);
#252=VECTOR('',#804,10.);
#253=VECTOR('',#807,10.);
#254=VECTOR('',#808,10.);
#255=VECTOR('',#823,5.);
#256=VECTOR('',#836,4.97499999999999);
#257=VECTOR('',#843,10.);
#258=VECTOR('',#844,10.);
#259=VECTOR('',#845,10.);
#260=VECTOR('',#846,10.);
#261=VECTOR('',#849,10.);
#262=VECTOR('',#850,10.);
#263=VECTOR('',#851,10.);
#264=VECTOR('',#854,10.);
#265=VECTOR('',#855,10.);
#266=VECTOR('',#858,10.);
#267=VECTOR('',#859,10.);
#268=VECTOR('',#862,10.);
#269=VERTEX_POINT('',#880);
#270=VERTEX_POINT('',#881);
#271=VERTEX_POINT('',#883);
#272=VERTEX_POINT('',#885);
#273=VERTEX_POINT('',#888);
#274=VERTEX_POINT('',#891);
#275=VERTEX_POINT('',#895);
#276=VERTEX_POINT('',#897);
#277=VERTEX_POINT('',#901);
#278=VERTEX_POINT('',#905);
#279=VERTEX_POINT('',#913);
#280=VERTEX_POINT('',#915);
#281=VERTEX_POINT('',#919);
#282=VERTEX_POINT('',#920);
#283=VERTEX_POINT('',#922);
#284=VERTEX_POINT('',#924);
#285=VERTEX_POINT('',#928);
#286=VERTEX_POINT('',#930);
#287=VERTEX_POINT('',#934);
#288=VERTEX_POINT('',#936);
#289=VERTEX_POINT('',#946);
#290=VERTEX_POINT('',#948);
#291=VERTEX_POINT('',#952);
#292=VERTEX_POINT('',#954);
#293=VERTEX_POINT('',#958);
#294=VERTEX_POINT('',#959);
#295=VERTEX_POINT('',#961);
#296=VERTEX_POINT('',#963);
#297=VERTEX_POINT('',#967);
#298=VERTEX_POINT('',#969);
#299=VERTEX_POINT('',#973);
#300=VERTEX_POINT('',#975);
#301=VERTEX_POINT('',#985);
#302=VERTEX_POINT('',#988);
#303=VERTEX_POINT('',#994);
#304=VERTEX_POINT('',#997);
#305=VERTEX_POINT('',#1003);
#306=VERTEX_POINT('',#1004);
#307=VERTEX_POINT('',#1006);
#308=VERTEX_POINT('',#1008);
#309=VERTEX_POINT('',#1012);
#310=VERTEX_POINT('',#1014);
#311=VERTEX_POINT('',#1018);
#312=VERTEX_POINT('',#1022);
#313=EDGE_CURVE('',#269,#270,#161,.T.);
#314=EDGE_CURVE('',#270,#271,#162,.T.);
#315=EDGE_CURVE('',#271,#272,#163,.T.);
#316=EDGE_CURVE('',#272,#269,#164,.T.);
#317=EDGE_CURVE('',#273,#273,#73,.T.);
#318=EDGE_CURVE('',#274,#274,#74,.T.);
#319=EDGE_CURVE('',#274,#273,#165,.T.);
#320=EDGE_CURVE('',#275,#270,#166,.T.);
#321=EDGE_CURVE('',#276,#275,#167,.T.);
#322=EDGE_CURVE('',#271,#276,#168,.T.);
#323=EDGE_CURVE('',#277,#276,#169,.T.);
#324=EDGE_CURVE('',#272,#277,#170,.T.);
#325=EDGE_CURVE('',#278,#277,#171,.T.);
#326=EDGE_CURVE('',#269,#278,#172,.T.);
#327=EDGE_CURVE('',#275,#278,#173,.T.);
#328=EDGE_CURVE('',#279,#279,#75,.T.);
#329=EDGE_CURVE('',#279,#280,#174,.T.);
#330=EDGE_CURVE('',#280,#280,#76,.T.);
#331=EDGE_CURVE('',#281,#282,#175,.T.);
#332=EDGE_CURVE('',#281,#283,#176,.T.);
#333=EDGE_CURVE('',#284,#283,#177,.T.);
#334=EDGE_CURVE('',#282,#284,#178,.T.);
#335=EDGE_CURVE('',#282,#285,#179,.T.);
#336=EDGE_CURVE('',#286,#284,#180,.T.);
#337=EDGE_CURVE('',#285,#286,#181,.T.);
#338=EDGE_CURVE('',#285,#287,#182,.T.);
#339=EDGE_CURVE('',#288,#286,#183,.T.);
#340=EDGE_CURVE('',#287,#288,#184,.T.);
#341=EDGE_CURVE('',#287,#281,#185,.T.);
#342=EDGE_CURVE('',#283,#288,#186,.T.);
#343=EDGE_CURVE('',#289,#289,#77,.T.);
#344=EDGE_CURVE('',#289,#290,#187,.T.);
#345=EDGE_CURVE('',#290,#290,#78,.T.);
#346=EDGE_CURVE('',#291,#291,#79,.T.);
#347=EDGE_CURVE('',#291,#292,#188,.T.);
#348=EDGE_CURVE('',#292,#292,#80,.T.);
#349=EDGE_CURVE('',#293,#294,#189,.T.);
#350=EDGE_CURVE('',#293,#295,#190,.T.);
#351=EDGE_CURVE('',#296,#295,#191,.T.);
#352=EDGE_CURVE('',#294,#296,#192,.T.);
#353=EDGE_CURVE('',#294,#297,#193,.T.);
#354=EDGE_CURVE('',#298,#296,#194,.T.);
#355=EDGE_CURVE('',#297,#298,#195,.T.);
#356=EDGE_CURVE('',#297,#299,#196,.T.);
#357=EDGE_CURVE('',#300,#298,#197,.T.);
#358=EDGE_CURVE('',#299,#300,#198,.T.);
#359=EDGE_CURVE('',#299,#293,#199,.T.);
#360=EDGE_CURVE('',#295,#300,#200,.T.);
#361=EDGE_CURVE('',#301,#301,#81,.T.);
#362=EDGE_CURVE('',#302,#302,#82,.T.);
#363=EDGE_CURVE('',#302,#301,#201,.T.);
#364=EDGE_CURVE('',#303,#303,#83,.T.);
#365=EDGE_CURVE('',#304,#304,#84,.T.);
#366=EDGE_CURVE('',#304,#303,#202,.T.);
#367=EDGE_CURVE('',#305,#306,#203,.T.);
#368=EDGE_CURVE('',#306,#307,#204,.T.);
#369=EDGE_CURVE('',#307,#308,#205,.T.);
#370=EDGE_CURVE('',#308,#305,#206,.T.);
#371=EDGE_CURVE('',#309,#306,#207,.T.);
#372=EDGE_CURVE('',#310,#309,#208,.T.);
#373=EDGE_CURVE('',#307,#310,#209,.T.);
#374=EDGE_CURVE('',#311,#310,#210,.T.);
#375=EDGE_CURVE('',#308,#311,#211,.T.);
#376=EDGE_CURVE('',#312,#311,#212,.T.);
#377=EDGE_CURVE('',#305,#312,#213,.T.);
#378=EDGE_CURVE('',#309,#312,#214,.T.);
#379=ORIENTED_EDGE('',*,*,#313,.T.);
#380=ORIENTED_EDGE('',*,*,#314,.T.);
#381=ORIENTED_EDGE('',*,*,#315,.T.);
#382=ORIENTED_EDGE('',*,*,#316,.T.);
#383=ORIENTED_EDGE('',*,*,#317,.T.);
#384=ORIENTED_EDGE('',*,*,#318,.F.);
#385=ORIENTED_EDGE('',*,*,#319,.T.);
#386=ORIENTED_EDGE('',*,*,#317,.F.);
#387=ORIENTED_EDGE('',*,*,#319,.F.);
#388=ORIENTED_EDGE('',*,*,#320,.F.);
#389=ORIENTED_EDGE('',*,*,#321,.F.);
#390=ORIENTED_EDGE('',*,*,#322,.F.);
#391=ORIENTED_EDGE('',*,*,#314,.F.);
#392=ORIENTED_EDGE('',*,*,#322,.T.);
#393=ORIENTED_EDGE('',*,*,#323,.F.);
#394=ORIENTED_EDGE('',*,*,#324,.F.);
#395=ORIENTED_EDGE('',*,*,#315,.F.);
#396=ORIENTED_EDGE('',*,*,#324,.T.);
#397=ORIENTED_EDGE('',*,*,#325,.F.);
#398=ORIENTED_EDGE('',*,*,#326,.F.);
#399=ORIENTED_EDGE('',*,*,#316,.F.);
#400=ORIENTED_EDGE('',*,*,#326,.T.);
#401=ORIENTED_EDGE('',*,*,#327,.F.);
#402=ORIENTED_EDGE('',*,*,#320,.T.);
#403=ORIENTED_EDGE('',*,*,#313,.F.);
#404=ORIENTED_EDGE('',*,*,#327,.T.);
#405=ORIENTED_EDGE('',*,*,#325,.T.);
#406=ORIENTED_EDGE('',*,*,#323,.T.);
#407=ORIENTED_EDGE('',*,*,#321,.T.);
#408=ORIENTED_EDGE('',*,*,#318,.T.);
#409=ORIENTED_EDGE('',*,*,#328,.F.);
#410=ORIENTED_EDGE('',*,*,#329,.T.);
#411=ORIENTED_EDGE('',*,*,#330,.T.);
#412=ORIENTED_EDGE('',*,*,#329,.F.);
#413=ORIENTED_EDGE('',*,*,#331,.F.);
#414=ORIENTED_EDGE('',*,*,#332,.T.);
#415=ORIENTED_EDGE('',*,*,#333,.F.);
#416=ORIENTED_EDGE('',*,*,#334,.F.);
#417=ORIENTED_EDGE('',*,*,#335,.F.);
#418=ORIENTED_EDGE('',*,*,#334,.T.);
#419=ORIENTED_EDGE('',*,*,#336,.F.);
#420=ORIENTED_EDGE('',*,*,#337,.F.);
#421=ORIENTED_EDGE('',*,*,#338,.F.);
#422=ORIENTED_EDGE('',*,*,#337,.T.);
#423=ORIENTED_EDGE('',*,*,#339,.F.);
#424=ORIENTED_EDGE('',*,*,#340,.F.);
#425=ORIENTED_EDGE('',*,*,#341,.F.);
#426=ORIENTED_EDGE('',*,*,#340,.T.);
#427=ORIENTED_EDGE('',*,*,#342,.F.);
#428=ORIENTED_EDGE('',*,*,#332,.F.);
#429=ORIENTED_EDGE('',*,*,#342,.T.);
#430=ORIENTED_EDGE('',*,*,#339,.T.);
#431=ORIENTED_EDGE('',*,*,#336,.T.);
#432=ORIENTED_EDGE('',*,*,#333,.T.);
#433=ORIENTED_EDGE('',*,*,#328,.T.);
#434=ORIENTED_EDGE('',*,*,#341,.T.);
#435=ORIENTED_EDGE('',*,*,#331,.T.);
#436=ORIENTED_EDGE('',*,*,#335,.T.);
#437=ORIENTED_EDGE('',*,*,#338,.T.);
#438=ORIENTED_EDGE('',*,*,#330,.F.);
#439=ORIENTED_EDGE('',*,*,#343,.F.);
#440=ORIENTED_EDGE('',*,*,#344,.T.);
#441=ORIENTED_EDGE('',*,*,#345,.T.);
#442=ORIENTED_EDGE('',*,*,#344,.F.);
#443=ORIENTED_EDGE('',*,*,#346,.F.);
#444=ORIENTED_EDGE('',*,*,#347,.T.);
#445=ORIENTED_EDGE('',*,*,#348,.T.);
#446=ORIENTED_EDGE('',*,*,#347,.F.);
#447=ORIENTED_EDGE('',*,*,#349,.F.);
#448=ORIENTED_EDGE('',*,*,#350,.T.);
#449=ORIENTED_EDGE('',*,*,#351,.F.);
#450=ORIENTED_EDGE('',*,*,#352,.F.);
#451=ORIENTED_EDGE('',*,*,#353,.F.);
#452=ORIENTED_EDGE('',*,*,#352,.T.);
#453=ORIENTED_EDGE('',*,*,#354,.F.);
#454=ORIENTED_EDGE('',*,*,#355,.F.);
#455=ORIENTED_EDGE('',*,*,#356,.F.);
#456=ORIENTED_EDGE('',*,*,#355,.T.);
#457=ORIENTED_EDGE('',*,*,#357,.F.);
#458=ORIENTED_EDGE('',*,*,#358,.F.);
#459=ORIENTED_EDGE('',*,*,#359,.F.);
#460=ORIENTED_EDGE('',*,*,#358,.T.);
#461=ORIENTED_EDGE('',*,*,#360,.F.);
#462=ORIENTED_EDGE('',*,*,#350,.F.);
#463=ORIENTED_EDGE('',*,*,#360,.T.);
#464=ORIENTED_EDGE('',*,*,#357,.T.);
#465=ORIENTED_EDGE('',*,*,#354,.T.);
#466=ORIENTED_EDGE('',*,*,#351,.T.);
#467=ORIENTED_EDGE('',*,*,#346,.T.);
#468=ORIENTED_EDGE('',*,*,#343,.T.);
#469=ORIENTED_EDGE('',*,*,#359,.T.);
#470=ORIENTED_EDGE('',*,*,#349,.T.);
#471=ORIENTED_EDGE('',*,*,#353,.T.);
#472=ORIENTED_EDGE('',*,*,#356,.T.);
#473=ORIENTED_EDGE('',*,*,#348,.F.);
#474=ORIENTED_EDGE('',*,*,#345,.F.);
#475=ORIENTED_EDGE('',*,*,#361,.T.);
#476=ORIENTED_EDGE('',*,*,#362,.F.);
#477=ORIENTED_EDGE('',*,*,#363,.T.);
#478=ORIENTED_EDGE('',*,*,#361,.F.);
#479=ORIENTED_EDGE('',*,*,#363,.F.);
#480=ORIENTED_EDGE('',*,*,#362,.T.);
#481=ORIENTED_EDGE('',*,*,#364,.T.);
#482=ORIENTED_EDGE('',*,*,#365,.F.);
#483=ORIENTED_EDGE('',*,*,#366,.T.);
#484=ORIENTED_EDGE('',*,*,#364,.F.);
#485=ORIENTED_EDGE('',*,*,#366,.F.);
#486=ORIENTED_EDGE('',*,*,#365,.T.);
#487=ORIENTED_EDGE('',*,*,#367,.T.);
#488=ORIENTED_EDGE('',*,*,#368,.T.);
#489=ORIENTED_EDGE('',*,*,#369,.T.);
#490=ORIENTED_EDGE('',*,*,#370,.T.);
#491=ORIENTED_EDGE('',*,*,#371,.F.);
#492=ORIENTED_EDGE('',*,*,#372,.F.);
#493=ORIENTED_EDGE('',*,*,#373,.F.);
#494=ORIENTED_EDGE('',*,*,#368,.F.);
#495=ORIENTED_EDGE('',*,*,#373,.T.);
#496=ORIENTED_EDGE('',*,*,#374,.F.);
#497=ORIENTED_EDGE('',*,*,#375,.F.);
#498=ORIENTED_EDGE('',*,*,#369,.F.);
#499=ORIENTED_EDGE('',*,*,#375,.T.);
#500=ORIENTED_EDGE('',*,*,#376,.F.);
#501=ORIENTED_EDGE('',*,*,#377,.F.);
#502=ORIENTED_EDGE('',*,*,#370,.F.);
#503=ORIENTED_EDGE('',*,*,#377,.T.);
#504=ORIENTED_EDGE('',*,*,#378,.F.);
#505=ORIENTED_EDGE('',*,*,#371,.T.);
#506=ORIENTED_EDGE('',*,*,#367,.F.);
#507=ORIENTED_EDGE('',*,*,#378,.T.);
#508=ORIENTED_EDGE('',*,*,#376,.T.);
#509=ORIENTED_EDGE('',*,*,#374,.T.);
#510=ORIENTED_EDGE('',*,*,#372,.T.);
#511=PLANE('',#648);
#512=PLANE('',#652);
#513=PLANE('',#653);
#514=PLANE('',#654);
#515=PLANE('',#655);
#516=PLANE('',#656);
#517=PLANE('',#661);
#518=PLANE('',#662);
#519=PLANE('',#663);
#520=PLANE('',#664);
#521=PLANE('',#665);
#522=PLANE('',#666);
#523=PLANE('',#674);
#524=PLANE('',#675);
#525=PLANE('',#676);
#526=PLANE('',#677);
#527=PLANE('',#678);
#528=PLANE('',#679);
#529=PLANE('',#681);
#530=PLANE('',#685);
#531=PLANE('',#687);
#532=PLANE('',#691);
#533=PLANE('',#693);
#534=PLANE('',#694);
#535=PLANE('',#695);
#536=PLANE('',#696);
#537=PLANE('',#697);
#538=PLANE('',#698);
#539=ADVANCED_FACE('',(#85,#65),#511,.F.);
#540=ADVANCED_FACE('',(#86),#59,.F.);
#541=ADVANCED_FACE('',(#87),#512,.T.);
#542=ADVANCED_FACE('',(#88),#513,.T.);
#543=ADVANCED_FACE('',(#89),#514,.T.);
#544=ADVANCED_FACE('',(#90),#515,.T.);
#545=ADVANCED_FACE('',(#91,#66),#516,.T.);
#546=ADVANCED_FACE('',(#92),#60,.F.);
#547=ADVANCED_FACE('',(#93),#517,.T.);
#548=ADVANCED_FACE('',(#94),#518,.T.);
#549=ADVANCED_FACE('',(#95),#519,.T.);
#550=ADVANCED_FACE('',(#96),#520,.T.);
#551=ADVANCED_FACE('',(#97,#67),#521,.T.);
#552=ADVANCED_FACE('',(#98,#68),#522,.F.);
#553=ADVANCED_FACE('',(#99),#61,.F.);
#554=ADVANCED_FACE('',(#100),#62,.F.);
#555=ADVANCED_FACE('',(#101),#523,.T.);
#556=ADVANCED_FACE('',(#102),#524,.T.);
#557=ADVANCED_FACE('',(#103),#525,.T.);
#558=ADVANCED_FACE('',(#104),#526,.T.);
#559=ADVANCED_FACE('',(#105,#69,#70),#527,.T.);
#560=ADVANCED_FACE('',(#106,#71,#72),#528,.F.);
#561=ADVANCED_FACE('',(#107),#529,.T.);
#562=ADVANCED_FACE('',(#108),#63,.T.);
#563=ADVANCED_FACE('',(#109),#530,.F.);
#564=ADVANCED_FACE('',(#110),#531,.F.);
#565=ADVANCED_FACE('',(#111),#64,.T.);
#566=ADVANCED_FACE('',(#112),#532,.T.);
#567=ADVANCED_FACE('',(#113),#533,.T.);
#568=ADVANCED_FACE('',(#114),#534,.T.);
#569=ADVANCED_FACE('',(#115),#535,.T.);
#570=ADVANCED_FACE('',(#116),#536,.T.);
#571=ADVANCED_FACE('',(#117),#537,.T.);
#572=ADVANCED_FACE('',(#118),#538,.T.);
#573=CLOSED_SHELL('',(#539,#540,#541,#542,#543,#544,#545));
#574=CLOSED_SHELL('',(#546,#547,#548,#549,#550,#551,#552));
#575=CLOSED_SHELL('',(#553,#554,#555,#556,#557,#558,#559,#560));
#576=CLOSED_SHELL('',(#561,#562,#563));
#577=CLOSED_SHELL('',(#564,#565,#566));
#578=CLOSED_SHELL('',(#567,#568,#569,#570,#571,#572));
#579=DERIVED_UNIT_ELEMENT(#591,1.);
#580=DERIVED_UNIT_ELEMENT(#1051,-3.);
#581=DERIVED_UNIT_ELEMENT(#591,1.);
#582=DERIVED_UNIT_ELEMENT(#1051,-3.);
#583=DERIVED_UNIT_ELEMENT(#591,1.);
#584=DERIVED_UNIT_ELEMENT(#1051,-3.);
#585=DERIVED_UNIT_ELEMENT(#591,1.);
#586=DERIVED_UNIT_ELEMENT(#1051,-3.);
#587=DERIVED_UNIT_ELEMENT(#591,1.);
#588=DERIVED_UNIT_ELEMENT(#1051,-3.);
#589=DERIVED_UNIT_ELEMENT(#591,1.);
#590=DERIVED_UNIT_ELEMENT(#1051,-3.);
#591=(
MASS_UNIT()
NAMED_UNIT(*)
SI_UNIT(.KILO.,.GRAM.)
);
#592=DERIVED_UNIT((#579,#580));
#593=DERIVED_UNIT((#581,#582));
#594=DERIVED_UNIT((#583,#584));
#595=DERIVED_UNIT((#585,#586));
#596=DERIVED_UNIT((#587,#588));
#597=DERIVED_UNIT((#589,#590));
#598=MEASURE_REPRESENTATION_ITEM('density measure',
POSITIVE_RATIO_MEASURE(7850.),#592);
#599=MEASURE_REPRESENTATION_ITEM('density measure',
POSITIVE_RATIO_MEASURE(7850.),#593);
#600=MEASURE_REPRESENTATION_ITEM('density measure',
POSITIVE_RATIO_MEASURE(7850.),#594);
#601=MEASURE_REPRESENTATION_ITEM('density measure',
POSITIVE_RATIO_MEASURE(7850.),#595);
#602=MEASURE_REPRESENTATION_ITEM('density measure',
POSITIVE_RATIO_MEASURE(7850.),#596);
#603=MEASURE_REPRESENTATION_ITEM('density measure',
POSITIVE_RATIO_MEASURE(7850.),#597);
#604=PROPERTY_DEFINITION_REPRESENTATION(#634,#616);
#605=PROPERTY_DEFINITION_REPRESENTATION(#635,#617);
#606=PROPERTY_DEFINITION_REPRESENTATION(#636,#618);
#607=PROPERTY_DEFINITION_REPRESENTATION(#637,#619);
#608=PROPERTY_DEFINITION_REPRESENTATION(#638,#620);
#609=PROPERTY_DEFINITION_REPRESENTATION(#639,#621);
#610=PROPERTY_DEFINITION_REPRESENTATION(#640,#622);
#611=PROPERTY_DEFINITION_REPRESENTATION(#641,#623);
#612=PROPERTY_DEFINITION_REPRESENTATION(#642,#624);
#613=PROPERTY_DEFINITION_REPRESENTATION(#643,#625);
#614=PROPERTY_DEFINITION_REPRESENTATION(#644,#626);
#615=PROPERTY_DEFINITION_REPRESENTATION(#645,#627);
#616=REPRESENTATION('material name',(#628),#1043);
#617=REPRESENTATION('density',(#598),#1043);
#618=REPRESENTATION('material name',(#629),#1044);
#619=REPRESENTATION('density',(#599),#1044);
#620=REPRESENTATION('material name',(#630),#1045);
#621=REPRESENTATION('density',(#600),#1045);
#622=REPRESENTATION('material name',(#631),#1046);
#623=REPRESENTATION('density',(#601),#1046);
#624=REPRESENTATION('material name',(#632),#1047);
#625=REPRESENTATION('density',(#602),#1047);
#626=REPRESENTATION('material name',(#633),#1048);
#627=REPRESENTATION('density',(#603),#1048);
#628=DESCRIPTIVE_REPRESENTATION_ITEM('Steel','Steel');
#629=DESCRIPTIVE_REPRESENTATION_ITEM('Steel','Steel');
#630=DESCRIPTIVE_REPRESENTATION_ITEM('Steel','Steel');
#631=DESCRIPTIVE_REPRESENTATION_ITEM('Steel','Steel');
#632=DESCRIPTIVE_REPRESENTATION_ITEM('Steel','Steel');
#633=DESCRIPTIVE_REPRESENTATION_ITEM('Steel','Steel');
#634=PROPERTY_DEFINITION('material property','material name',#1083);
#635=PROPERTY_DEFINITION('material property','density of part',#1083);
#636=PROPERTY_DEFINITION('material property','material name',#1084);
#637=PROPERTY_DEFINITION('material property','density of part',#1084);
#638=PROPERTY_DEFINITION('material property','material name',#1085);
#639=PROPERTY_DEFINITION('material property','density of part',#1085);
#640=PROPERTY_DEFINITION('material property','material name',#1086);
#641=PROPERTY_DEFINITION('material property','density of part',#1086);
#642=PROPERTY_DEFINITION('material property','material name',#1087);
#643=PROPERTY_DEFINITION('material property','density of part',#1087);
#644=PROPERTY_DEFINITION('material property','material name',#1088);
#645=PROPERTY_DEFINITION('material property','density of part',#1088);
#646=AXIS2_PLACEMENT_3D('',#877,#705,#706);
#647=AXIS2_PLACEMENT_3D('',#878,#707,#708);
#648=AXIS2_PLACEMENT_3D('',#879,#709,#710);
#649=AXIS2_PLACEMENT_3D('',#889,#715,#716);
#650=AXIS2_PLACEMENT_3D('',#890,#717,#718);
#651=AXIS2_PLACEMENT_3D('',#892,#719,#720);
#652=AXIS2_PLACEMENT_3D('',#894,#722,#723);
#653=AXIS2_PLACEMENT_3D('',#900,#727,#728);
#654=AXIS2_PLACEMENT_3D('',#904,#731,#732);
#655=AXIS2_PLACEMENT_3D('',#908,#735,#736);
#656=AXIS2_PLACEMENT_3D('',#910,#738,#739);
#657=AXIS2_PLACEMENT_3D('',#911,#740,#741);
#658=AXIS2_PLACEMENT_3D('',#912,#742,#743);
#659=AXIS2_PLACEMENT_3D('',#914,#744,#745);
#660=AXIS2_PLACEMENT_3D('',#917,#747,#748);
#661=AXIS2_PLACEMENT_3D('',#918,#749,#750);
#662=AXIS2_PLACEMENT_3D('',#927,#755,#756);
#663=AXIS2_PLACEMENT_3D('',#933,#760,#761);
#664=AXIS2_PLACEMENT_3D('',#939,#765,#766);
#665=AXIS2_PLACEMENT_3D('',#942,#769,#770);
#666=AXIS2_PLACEMENT_3D('',#943,#771,#772);
#667=AXIS2_PLACEMENT_3D('',#944,#773,#774);
#668=AXIS2_PLACEMENT_3D('',#945,#775,#776);
#669=AXIS2_PLACEMENT_3D('',#947,#777,#778);
#670=AXIS2_PLACEMENT_3D('',#950,#780,#781);
#671=AXIS2_PLACEMENT_3D('',#951,#782,#783);
#672=AXIS2_PLACEMENT_3D('',#953,#784,#785);
#673=AXIS2_PLACEMENT_3D('',#956,#787,#788);
#674=AXIS2_PLACEMENT_3D('',#957,#789,#790);
#675=AXIS2_PLACEMENT_3D('',#966,#795,#796);
#676=AXIS2_PLACEMENT_3D('',#972,#800,#801);
#677=AXIS2_PLACEMENT_3D('',#978,#805,#806);
#678=AXIS2_PLACEMENT_3D('',#981,#809,#810);
#679=AXIS2_PLACEMENT_3D('',#982,#811,#812);
#680=AXIS2_PLACEMENT_3D('',#983,#813,#814);
#681=AXIS2_PLACEMENT_3D('',#984,#815,#816);
#682=AXIS2_PLACEMENT_3D('',#986,#817,#818);
#683=AXIS2_PLACEMENT_3D('',#987,#819,#820);
#684=AXIS2_PLACEMENT_3D('',#989,#821,#822);
#685=AXIS2_PLACEMENT_3D('',#991,#824,#825);
#686=AXIS2_PLACEMENT_3D('',#992,#826,#827);
#687=AXIS2_PLACEMENT_3D('',#993,#828,#829);
#688=AXIS2_PLACEMENT_3D('',#995,#830,#831);
#689=AXIS2_PLACEMENT_3D('',#996,#832,#833);
#690=AXIS2_PLACEMENT_3D('',#998,#834,#835);
#691=AXIS2_PLACEMENT_3D('',#1000,#837,#838);
#692=AXIS2_PLACEMENT_3D('',#1001,#839,#840);
#693=AXIS2_PLACEMENT_3D('',#1002,#841,#842);
#694=AXIS2_PLACEMENT_3D('',#1011,#847,#848);
#695=AXIS2_PLACEMENT_3D('',#1017,#852,#853);
#696=AXIS2_PLACEMENT_3D('',#1021,#856,#857);
#697=AXIS2_PLACEMENT_3D('',#1025,#860,#861);
#698=AXIS2_PLACEMENT_3D('',#1027,#863,#864);
#699=AXIS2_PLACEMENT_3D('',#1028,#865,#866);
#700=AXIS2_PLACEMENT_3D('',#1029,#867,#868);
#701=AXIS2_PLACEMENT_3D('',#1030,#869,#870);
#702=AXIS2_PLACEMENT_3D('',#1031,#871,#872);
#703=AXIS2_PLACEMENT_3D('',#1032,#873,#874);
#704=AXIS2_PLACEMENT_3D('',#1033,#875,#876);
#705=DIRECTION('axis',(0.,0.,1.));
#706=DIRECTION('refdir',(1.,0.,0.));
#707=DIRECTION('axis',(0.,0.,1.));
#708=DIRECTION('refdir',(1.,0.,0.));
#709=DIRECTION('center_axis',(0.,0.,1.));
#710=DIRECTION('ref_axis',(1.,0.,0.));
#711=DIRECTION('',(1.,-1.77635683940025E-16,0.));
#712=DIRECTION('',(1.77635683940025E-16,-1.,0.));
#713=DIRECTION('',(-1.,1.77635683940025E-16,0.));
#714=DIRECTION('',(8.88178419700125E-17,1.,0.));
#715=DIRECTION('center_axis',(0.,0.,1.));
#716=DIRECTION('ref_axis',(1.,0.,0.));
#717=DIRECTION('center_axis',(0.,0.,1.));
#718=DIRECTION('ref_axis',(1.,0.,0.));
#719=DIRECTION('center_axis',(0.,0.,-1.));
#720=DIRECTION('ref_axis',(1.,0.,0.));
#721=DIRECTION('',(0.,0.,-1.));
#722=DIRECTION('center_axis',(1.,1.77635683940025E-16,0.));
#723=DIRECTION('ref_axis',(-1.77635683940025E-16,1.,0.));
#724=DIRECTION('',(0.,0.,-1.));
#725=DIRECTION('',(-1.77635683940025E-16,1.,0.));
#726=DIRECTION('',(0.,0.,1.));
#727=DIRECTION('center_axis',(-1.77635683940025E-16,-1.,0.));
#728=DIRECTION('ref_axis',(1.,-1.77635683940025E-16,0.));
#729=DIRECTION('',(1.,-1.77635683940025E-16,0.));
#730=DIRECTION('',(0.,0.,1.));
#731=DIRECTION('center_axis',(-1.,8.88178419700125E-17,0.));
#732=DIRECTION('ref_axis',(-8.88178419700125E-17,-1.,0.));
#733=DIRECTION('',(-8.88178419700125E-17,-1.,0.));
#734=DIRECTION('',(0.,0.,1.));
#735=DIRECTION('center_axis',(1.77635683940025E-16,1.,0.));
#736=DIRECTION('ref_axis',(-1.,1.77635683940025E-16,0.));
#737=DIRECTION('',(-1.,1.77635683940025E-16,0.));
#738=DIRECTION('center_axis',(0.,0.,1.));
#739=DIRECTION('ref_axis',(1.,0.,0.));
#740=DIRECTION('axis',(0.,0.,1.));
#741=DIRECTION('refdir',(1.,0.,0.));
#742=DIRECTION('center_axis',(0.,0.,-1.));
#743=DIRECTION('ref_axis',(1.,0.,0.));
#744=DIRECTION('center_axis',(0.,0.,1.));
#745=DIRECTION('ref_axis',(1.,0.,0.));
#746=DIRECTION('',(0.,0.,1.));
#747=DIRECTION('center_axis',(0.,0.,1.));
#748=DIRECTION('ref_axis',(1.,0.,0.));
#749=DIRECTION('center_axis',(-1.,0.,0.));
#750=DIRECTION('ref_axis',(0.,1.,0.));
#751=DIRECTION('',(0.,-1.,0.));
#752=DIRECTION('',(0.,0.,-1.));
#753=DIRECTION('',(0.,1.,0.));
#754=DIRECTION('',(0.,0.,-1.));
#755=DIRECTION('center_axis',(0.,-1.,0.));
#756=DIRECTION('ref_axis',(-1.,0.,0.));
#757=DIRECTION('',(1.,0.,0.));
#758=DIRECTION('',(-1.,0.,0.));
#759=DIRECTION('',(0.,0.,-1.));
#760=DIRECTION('center_axis',(1.,0.,0.));
#761=DIRECTION('ref_axis',(0.,-1.,0.));
#762=DIRECTION('',(0.,1.,0.));
#763=DIRECTION('',(0.,-1.,0.));
#764=DIRECTION('',(0.,0.,-1.));
#765=DIRECTION('center_axis',(0.,1.,0.));
#766=DIRECTION('ref_axis',(1.,0.,0.));
#767=DIRECTION('',(-1.,0.,0.));
#768=DIRECTION('',(1.,0.,0.));
#769=DIRECTION('center_axis',(0.,0.,-1.));
#770=DIRECTION('ref_axis',(1.,0.,0.));
#771=DIRECTION('center_axis',(0.,0.,-1.));
#772=DIRECTION('ref_axis',(1.,0.,0.));
#773=DIRECTION('axis',(0.,0.,1.));
#774=DIRECTION('refdir',(1.,0.,0.));
#775=DIRECTION('center_axis',(0.,0.,1.));
#776=DIRECTION('ref_axis',(-1.,0.,0.));
#777=DIRECTION('center_axis',(0.,0.,-1.));
#778=DIRECTION('ref_axis',(-1.,0.,0.));
#779=DIRECTION('',(0.,0.,-1.));
#780=DIRECTION('center_axis',(0.,0.,-1.));
#781=DIRECTION('ref_axis',(-1.,0.,0.));
#782=DIRECTION('center_axis',(0.,0.,1.));
#783=DIRECTION('ref_axis',(-1.,0.,0.));
#784=DIRECTION('center_axis',(0.,0.,-1.));
#785=DIRECTION('ref_axis',(-1.,0.,0.));
#786=DIRECTION('',(0.,0.,-1.));
#787=DIRECTION('center_axis',(0.,0.,-1.));
#788=DIRECTION('ref_axis',(-1.,0.,0.));
#789=DIRECTION('center_axis',(-1.,0.,0.));
#790=DIRECTION('ref_axis',(0.,-1.,0.));
#791=DIRECTION('',(0.,1.,0.));
#792=DIRECTION('',(0.,0.,1.));
#793=DIRECTION('',(0.,-1.,0.));
#794=DIRECTION('',(0.,0.,1.));
#795=DIRECTION('center_axis',(0.,1.,0.));
#796=DIRECTION('ref_axis',(-1.,0.,0.));
#797=DIRECTION('',(1.,0.,0.));
#798=DIRECTION('',(-1.,0.,0.));
#799=DIRECTION('',(0.,0.,1.));
#800=DIRECTION('center_axis',(1.,0.,0.));
#801=DIRECTION('ref_axis',(0.,1.,0.));
#802=DIRECTION('',(0.,-1.,0.));
#803=DIRECTION('',(0.,1.,0.));
#804=DIRECTION('',(0.,0.,1.));
#805=DIRECTION('center_axis',(-1.11022302462516E-17,-1.,0.));
#806=DIRECTION('ref_axis',(1.,-1.11022302462516E-17,0.));
#807=DIRECTION('',(-1.,1.11022302462516E-17,0.));
#808=DIRECTION('',(1.,-1.11022302462516E-17,0.));
#809=DIRECTION('center_axis',(0.,0.,1.));
#810=DIRECTION('ref_axis',(-1.,0.,0.));
#811=DIRECTION('center_axis',(0.,0.,1.));
#812=DIRECTION('ref_axis',(-1.,0.,0.));
#813=DIRECTION('axis',(0.,0.,1.));
#814=DIRECTION('refdir',(1.,0.,0.));
#815=DIRECTION('center_axis',(0.,0.,1.));
#816=DIRECTION('ref_axis',(-1.,0.,0.));
#817=DIRECTION('center_axis',(0.,0.,1.));
#818=DIRECTION('ref_axis',(-1.,0.,0.));
#819=DIRECTION('center_axis',(0.,0.,-1.));
#820=DIRECTION('ref_axis',(-1.,0.,0.));
#821=DIRECTION('center_axis',(0.,0.,-1.));
#822=DIRECTION('ref_axis',(-1.,0.,0.));
#823=DIRECTION('',(0.,0.,1.));
#824=DIRECTION('center_axis',(0.,0.,1.));
#825=DIRECTION('ref_axis',(-1.,0.,0.));
#826=DIRECTION('axis',(0.,0.,1.));
#827=DIRECTION('refdir',(1.,0.,0.));
#828=DIRECTION('center_axis',(0.,0.,1.));
#829=DIRECTION('ref_axis',(-1.,0.,0.));
#830=DIRECTION('center_axis',(0.,0.,-1.));
#831=DIRECTION('ref_axis',(-1.,0.,0.));
#832=DIRECTION('center_axis',(0.,0.,1.));
#833=DIRECTION('ref_axis',(-1.,0.,0.));
#834=DIRECTION('center_axis',(0.,0.,1.));
#835=DIRECTION('ref_axis',(-1.,0.,0.));
#836=DIRECTION('',(0.,0.,-1.));
#837=DIRECTION('center_axis',(0.,0.,1.));
#838=DIRECTION('ref_axis',(-1.,0.,0.));
#839=DIRECTION('axis',(0.,0.,1.));
#840=DIRECTION('refdir',(1.,0.,0.));
#841=DIRECTION('center_axis',(0.,-1.77635683940025E-15,-1.));
#842=DIRECTION('ref_axis',(-1.,0.,0.));
#843=DIRECTION('',(-1.96648253236732E-14,-1.,0.));
#844=DIRECTION('',(-1.,1.96648253236732E-14,2.8421709430404E-15));
#845=DIRECTION('',(1.96648253236732E-14,1.,-1.77635683940025E-15));
#846=DIRECTION('',(1.,-1.96648253236732E-14,0.));
#847=DIRECTION('center_axis',(-1.96648253236732E-14,-1.,1.77635683940025E-15));
#848=DIRECTION('ref_axis',(1.,-1.96648253236732E-14,-2.8421709430404E-15));
#849=DIRECTION('',(0.,-1.77635683940025E-15,-1.));
#850=DIRECTION('',(1.,-1.96648253236732E-14,-2.8421709430404E-15));
#851=DIRECTION('',(0.,1.77635683940025E-15,1.));
#852=DIRECTION('center_axis',(-1.,1.96648253236732E-14,-3.49317469593181E-29));
#853=DIRECTION('ref_axis',(-1.96648253236732E-14,-1.,1.77635683940025E-15));
#854=DIRECTION('',(-1.96648253236732E-14,-1.,1.77635683940025E-15));
#855=DIRECTION('',(0.,1.77635683940025E-15,1.));
#856=DIRECTION('center_axis',(1.96648253236732E-14,1.,-1.77635683940025E-15));
#857=DIRECTION('ref_axis',(-1.,1.96648253236732E-14,0.));
#858=DIRECTION('',(-1.,1.96648253236732E-14,0.));
#859=DIRECTION('',(0.,1.77635683940025E-15,1.));
#860=DIRECTION('center_axis',(1.,-1.96648253236732E-14,3.49317469593181E-29));
#861=DIRECTION('ref_axis',(1.96648253236732E-14,1.,0.));
#862=DIRECTION('',(1.96648253236732E-14,1.,0.));
#863=DIRECTION('center_axis',(0.,1.77635683940025E-15,1.));
#864=DIRECTION('ref_axis',(1.,0.,0.));
#865=DIRECTION('',(0.,0.,1.));
#866=DIRECTION('',(1.,0.,0.));
#867=DIRECTION('',(0.,0.,0.999999999999996));
#868=DIRECTION('',(1.98591143529825E-14,-0.999999999999999,0.));
#869=DIRECTION('',(0.,0.,1.));
#870=DIRECTION('',(-5.55111512312578E-17,-1.,0.));
#871=DIRECTION('',(0.,0.,1.));
#872=DIRECTION('',(1.,0.,0.));
#873=DIRECTION('',(0.,0.,1.));
#874=DIRECTION('',(1.,0.,0.));
#875=DIRECTION('',(0.,0.,1.));
#876=DIRECTION('',(1.,0.,0.));
#877=CARTESIAN_POINT('',(0.,0.,0.));
#878=CARTESIAN_POINT('',(0.,0.,0.));
#879=CARTESIAN_POINT('Origin',(0.,0.,-7.5));
#880=CARTESIAN_POINT('',(-50.,50.,-7.5));
#881=CARTESIAN_POINT('',(50.,50.,-7.5));
#882=CARTESIAN_POINT('',(-50.,50.,-7.5));
#883=CARTESIAN_POINT('',(50.,-50.,-7.5));
#884=CARTESIAN_POINT('',(50.,50.,-7.5));
#885=CARTESIAN_POINT('',(-50.,-50.,-7.5));
#886=CARTESIAN_POINT('',(50.,-50.,-7.5));
#887=CARTESIAN_POINT('',(-50.,-50.,-7.5));
#888=CARTESIAN_POINT('',(-5.,-6.12323399573677E-16,-7.5));
#889=CARTESIAN_POINT('Origin',(0.,0.,-7.5));
#890=CARTESIAN_POINT('Origin',(0.,0.,0.));
#891=CARTESIAN_POINT('',(-5.,-6.12323399573677E-16,7.5));
#892=CARTESIAN_POINT('Origin',(0.,0.,7.5));
#893=CARTESIAN_POINT('',(-5.,-6.12323399573677E-16,0.));
#894=CARTESIAN_POINT('Origin',(50.,-50.,0.));
#895=CARTESIAN_POINT('',(50.,50.,7.5));
#896=CARTESIAN_POINT('',(50.,50.,0.));
#897=CARTESIAN_POINT('',(50.,-50.,7.5));
#898=CARTESIAN_POINT('',(50.,50.,7.5));
#899=CARTESIAN_POINT('',(50.,-50.,0.));
#900=CARTESIAN_POINT('Origin',(-50.,-50.,0.));
#901=CARTESIAN_POINT('',(-50.,-50.,7.5));
#902=CARTESIAN_POINT('',(50.,-50.,7.5));
#903=CARTESIAN_POINT('',(-50.,-50.,0.));
#904=CARTESIAN_POINT('Origin',(-50.,50.,0.));
#905=CARTESIAN_POINT('',(-50.,50.,7.5));
#906=CARTESIAN_POINT('',(-50.,-50.,7.5));
#907=CARTESIAN_POINT('',(-50.,50.,0.));
#908=CARTESIAN_POINT('Origin',(50.,50.,0.));
#909=CARTESIAN_POINT('',(-50.,50.,7.5));
#910=CARTESIAN_POINT('Origin',(0.,0.,7.5));
#911=CARTESIAN_POINT('',(0.,0.,0.));
#912=CARTESIAN_POINT('Origin',(170.,0.,7.5));
#913=CARTESIAN_POINT('',(165.,6.12323399573681E-16,-2.5));
#914=CARTESIAN_POINT('Origin',(170.,0.,-2.5));
#915=CARTESIAN_POINT('',(165.,6.12323399573681E-16,7.5));
#916=CARTESIAN_POINT('',(165.,6.12323399573681E-16,7.5));
#917=CARTESIAN_POINT('Origin',(170.,0.,7.5));
#918=CARTESIAN_POINT('Origin',(155.,-15.,7.5));
#919=CARTESIAN_POINT('',(155.,15.,7.5));
#920=CARTESIAN_POINT('',(155.,-15.,7.5));
#921=CARTESIAN_POINT('',(155.,15.,7.5));
#922=CARTESIAN_POINT('',(155.,15.,-2.5));
#923=CARTESIAN_POINT('',(155.,15.,7.5));
#924=CARTESIAN_POINT('',(155.,-15.,-2.5));
#925=CARTESIAN_POINT('',(155.,15.,-2.5));
#926=CARTESIAN_POINT('',(155.,-15.,7.5));
#927=CARTESIAN_POINT('Origin',(335.,-15.,7.5));
#928=CARTESIAN_POINT('',(335.,-15.,7.5));
#929=CARTESIAN_POINT('',(155.,-15.,7.5));
#930=CARTESIAN_POINT('',(335.,-15.,-2.5));
#931=CARTESIAN_POINT('',(155.,-15.,-2.5));
#932=CARTESIAN_POINT('',(335.,-15.,7.5));
#933=CARTESIAN_POINT('Origin',(335.,15.,7.5));
#934=CARTESIAN_POINT('',(335.,15.,7.5));
#935=CARTESIAN_POINT('',(335.,-15.,7.5));
#936=CARTESIAN_POINT('',(335.,15.,-2.5));
#937=CARTESIAN_POINT('',(335.,-15.,-2.5));
#938=CARTESIAN_POINT('',(335.,15.,7.5));
#939=CARTESIAN_POINT('Origin',(155.,15.,7.5));
#940=CARTESIAN_POINT('',(335.,15.,7.5));
#941=CARTESIAN_POINT('',(335.,15.,-2.5));
#942=CARTESIAN_POINT('Origin',(245.,-2.22044604925031E-15,-2.5));
#943=CARTESIAN_POINT('Origin',(245.,-2.22044604925031E-15,7.5));
#944=CARTESIAN_POINT('',(0.,0.,0.));
#945=CARTESIAN_POINT('Origin',(170.,0.,7.5));
#946=CARTESIAN_POINT('',(175.,6.12323399573677E-16,17.5));
#947=CARTESIAN_POINT('Origin',(170.,0.,17.5));
#948=CARTESIAN_POINT('',(175.,6.12323399573677E-16,7.5));
#949=CARTESIAN_POINT('',(175.,6.12323399573677E-16,7.5));
#950=CARTESIAN_POINT('Origin',(170.,0.,7.5));
#951=CARTESIAN_POINT('Origin',(0.,0.,7.5));
#952=CARTESIAN_POINT('',(5.,6.12323399573677E-16,17.5));
#953=CARTESIAN_POINT('Origin',(0.,0.,17.5));
#954=CARTESIAN_POINT('',(5.,6.12323399573677E-16,7.5));
#955=CARTESIAN_POINT('',(5.,6.12323399573677E-16,7.5));
#956=CARTESIAN_POINT('Origin',(0.,0.,7.5));
#957=CARTESIAN_POINT('Origin',(-15.,15.,7.5));
#958=CARTESIAN_POINT('',(-15.,-15.,7.5));
#959=CARTESIAN_POINT('',(-15.,15.,7.5));
#960=CARTESIAN_POINT('',(-15.,-15.,7.5));
#961=CARTESIAN_POINT('',(-15.,-15.,17.5));
#962=CARTESIAN_POINT('',(-15.,-15.,7.5));
#963=CARTESIAN_POINT('',(-15.,15.,17.5));
#964=CARTESIAN_POINT('',(-15.,-15.,17.5));
#965=CARTESIAN_POINT('',(-15.,15.,7.5));
#966=CARTESIAN_POINT('Origin',(185.,15.,7.5));
#967=CARTESIAN_POINT('',(185.,15.,7.5));
#968=CARTESIAN_POINT('',(-15.,15.,7.5));
#969=CARTESIAN_POINT('',(185.,15.,17.5));
#970=CARTESIAN_POINT('',(-15.,15.,17.5));
#971=CARTESIAN_POINT('',(185.,15.,7.5));
#972=CARTESIAN_POINT('Origin',(185.,-15.,7.5));
#973=CARTESIAN_POINT('',(185.,-15.,7.5));
#974=CARTESIAN_POINT('',(185.,15.,7.5));
#975=CARTESIAN_POINT('',(185.,-15.,17.5));
#976=CARTESIAN_POINT('',(185.,15.,17.5));
#977=CARTESIAN_POINT('',(185.,-15.,7.5));
#978=CARTESIAN_POINT('Origin',(-15.,-15.,7.5));
#979=CARTESIAN_POINT('',(185.,-15.,7.5));
#980=CARTESIAN_POINT('',(185.,-15.,17.5));
#981=CARTESIAN_POINT('Origin',(85.,0.,17.5));
#982=CARTESIAN_POINT('Origin',(85.,0.,7.5));
#983=CARTESIAN_POINT('',(0.,0.,0.));
#984=CARTESIAN_POINT('Origin',(0.,0.,19.5));
#985=CARTESIAN_POINT('',(5.,6.12323399573677E-16,19.5));
#986=CARTESIAN_POINT('Origin',(0.,0.,19.5));
#987=CARTESIAN_POINT('Origin',(0.,0.,17.5));
#988=CARTESIAN_POINT('',(5.,6.12323399573677E-16,-9.5));
#989=CARTESIAN_POINT('Origin',(0.,0.,-9.5));
#990=CARTESIAN_POINT('',(5.,-6.12323399573677E-16,17.5));
#991=CARTESIAN_POINT('Origin',(0.,0.,-9.5));
#992=CARTESIAN_POINT('',(0.,0.,0.));
#993=CARTESIAN_POINT('Origin',(170.,0.,-4.5));
#994=CARTESIAN_POINT('',(174.975,6.09261782575807E-16,-4.5));
#995=CARTESIAN_POINT('Origin',(170.,0.,-4.5));
#996=CARTESIAN_POINT('Origin',(170.,0.,17.5));
#997=CARTESIAN_POINT('',(174.975,6.09261782575807E-16,19.5));
#998=CARTESIAN_POINT('Origin',(170.,0.,19.5));
#999=CARTESIAN_POINT('',(174.975,6.09261782575807E-16,17.5));
#1000=CARTESIAN_POINT('Origin',(170.,0.,19.5));
#1001=CARTESIAN_POINT('',(0.,0.,0.));
#1002=CARTESIAN_POINT('Origin',(74.9999999999932,-309.999999999998,7.50000000000007));
#1003=CARTESIAN_POINT('',(99.999999999994,-269.999999999998,7.5));
#1004=CARTESIAN_POINT('',(99.9999999999924,-349.999999999998,7.5));
#1005=CARTESIAN_POINT('',(99.999999999994,-269.999999999998,7.5));
#1006=CARTESIAN_POINT('',(49.9999999999924,-349.999999999997,7.50000000000014));
#1007=CARTESIAN_POINT('',(99.9999999999924,-349.999999999998,7.5));
#1008=CARTESIAN_POINT('',(49.999999999994,-269.999999999997,7.5));
#1009=CARTESIAN_POINT('',(49.9999999999924,-349.999999999997,7.50000000000014));
#1010=CARTESIAN_POINT('',(49.999999999994,-269.999999999997,7.5));
#1011=CARTESIAN_POINT('Origin',(49.9999999999924,-349.999999999997,27.5000000000001));
#1012=CARTESIAN_POINT('',(99.9999999999924,-349.999999999998,47.5));
#1013=CARTESIAN_POINT('',(99.9999999999924,-349.999999999998,27.5));
#1014=CARTESIAN_POINT('',(49.9999999999924,-349.999999999997,47.5000000000001));
#1015=CARTESIAN_POINT('',(99.9999999999924,-349.999999999998,47.5));
#1016=CARTESIAN_POINT('',(49.9999999999924,-349.999999999997,27.5000000000001));
#1017=CARTESIAN_POINT('Origin',(49.999999999994,-269.999999999997,27.5));
#1018=CARTESIAN_POINT('',(49.999999999994,-269.999999999997,47.5));
#1019=CARTESIAN_POINT('',(49.9999999999924,-349.999999999997,47.5000000000001));
#1020=CARTESIAN_POINT('',(49.999999999994,-269.999999999997,27.5));
#1021=CARTESIAN_POINT('Origin',(99.999999999994,-269.999999999998,27.5));
#1022=CARTESIAN_POINT('',(99.999999999994,-269.999999999998,47.5));
#1023=CARTESIAN_POINT('',(49.999999999994,-269.999999999997,47.5));
#1024=CARTESIAN_POINT('',(99.999999999994,-269.999999999998,27.5));
#1025=CARTESIAN_POINT('Origin',(99.9999999999924,-349.999999999998,27.5));
#1026=CARTESIAN_POINT('',(99.999999999994,-269.999999999998,47.5));
#1027=CARTESIAN_POINT('Origin',(74.9999999999932,-309.999999999998,47.5000000000001));
#1028=CARTESIAN_POINT('',(0.,0.,0.));
#1029=CARTESIAN_POINT('',(-3.90354415458205E-12,-6.90003609804535E-13,20.));
#1030=CARTESIAN_POINT('',(0.,0.,0.));
#1031=CARTESIAN_POINT('',(0.,0.,0.));
#1032=CARTESIAN_POINT('',(-170.,-170.,10.));
#1033=CARTESIAN_POINT('',(0.,0.,0.));
#1034=UNCERTAINTY_MEASURE_WITH_UNIT(LENGTH_MEASURE(0.01),#1050,
'DISTANCE_ACCURACY_VALUE',
'Maximum model space distance between geometric entities at asserted c
onnectivities');
#1035=UNCERTAINTY_MEASURE_WITH_UNIT(LENGTH_MEASURE(0.01),#1050,
'DISTANCE_ACCURACY_VALUE',
'Maximum model space distance between geometric entities at asserted c
onnectivities');
#1036=UNCERTAINTY_MEASURE_WITH_UNIT(LENGTH_MEASURE(0.01),#1050,
'DISTANCE_ACCURACY_VALUE',
'Maximum model space distance between geometric entities at asserted c
onnectivities');
#1037=UNCERTAINTY_MEASURE_WITH_UNIT(LENGTH_MEASURE(0.01),#1050,
'DISTANCE_ACCURACY_VALUE',
'Maximum model space distance between geometric entities at asserted c
onnectivities');
#1038=UNCERTAINTY_MEASURE_WITH_UNIT(LENGTH_MEASURE(0.01),#1050,
'DISTANCE_ACCURACY_VALUE',
'Maximum model space distance between geometric entities at asserted c
onnectivities');
#1039=UNCERTAINTY_MEASURE_WITH_UNIT(LENGTH_MEASURE(0.01),#1050,
'DISTANCE_ACCURACY_VALUE',
'Maximum model space distance between geometric entities at asserted c
onnectivities');
#1040=UNCERTAINTY_MEASURE_WITH_UNIT(LENGTH_MEASURE(0.01),#1050,
'DISTANCE_ACCURACY_VALUE',
'Maximum model space distance between geometric entities at asserted c
onnectivities');
#1041=UNCERTAINTY_MEASURE_WITH_UNIT(LENGTH_MEASURE(0.01),#1050,
'DISTANCE_ACCURACY_VALUE',
'Maximum model space distance between geometric entities at asserted c
onnectivities');
#1042=(
GEOMETRIC_REPRESENTATION_CONTEXT(3)
GLOBAL_UNCERTAINTY_ASSIGNED_CONTEXT((#1034))
GLOBAL_UNIT_ASSIGNED_CONTEXT((#1050,#1052,#1053))
REPRESENTATION_CONTEXT('','3D')
);
#1043=(
GEOMETRIC_REPRESENTATION_CONTEXT(3)
GLOBAL_UNCERTAINTY_ASSIGNED_CONTEXT((#1035))
GLOBAL_UNIT_ASSIGNED_CONTEXT((#1050,#1052,#1053))
REPRESENTATION_CONTEXT('','3D')
);
#1044=(
GEOMETRIC_REPRESENTATION_CONTEXT(3)
GLOBAL_UNCERTAINTY_ASSIGNED_CONTEXT((#1036))
GLOBAL_UNIT_ASSIGNED_CONTEXT((#1050,#1052,#1053))
REPRESENTATION_CONTEXT('','3D')
);
#1045=(
GEOMETRIC_REPRESENTATION_CONTEXT(3)
GLOBAL_UNCERTAINTY_ASSIGNED_CONTEXT((#1037))
GLOBAL_UNIT_ASSIGNED_CONTEXT((#1050,#1052,#1053))
REPRESENTATION_CONTEXT('','3D')
);
#1046=(
GEOMETRIC_REPRESENTATION_CONTEXT(3)
GLOBAL_UNCERTAINTY_ASSIGNED_CONTEXT((#1038))
GLOBAL_UNIT_ASSIGNED_CONTEXT((#1050,#1052,#1053))
REPRESENTATION_CONTEXT('','3D')
);
#1047=(
GEOMETRIC_REPRESENTATION_CONTEXT(3)
GLOBAL_UNCERTAINTY_ASSIGNED_CONTEXT((#1039))
GLOBAL_UNIT_ASSIGNED_CONTEXT((#1050,#1052,#1053))
REPRESENTATION_CONTEXT('','3D')
);
#1048=(
GEOMETRIC_REPRESENTATION_CONTEXT(3)
GLOBAL_UNCERTAINTY_ASSIGNED_CONTEXT((#1040))
GLOBAL_UNIT_ASSIGNED_CONTEXT((#1050,#1052,#1053))
REPRESENTATION_CONTEXT('','3D')
);
#1049=(
GEOMETRIC_REPRESENTATION_CONTEXT(3)
GLOBAL_UNCERTAINTY_ASSIGNED_CONTEXT((#1041))
GLOBAL_UNIT_ASSIGNED_CONTEXT((#1050,#1052,#1053))
REPRESENTATION_CONTEXT('','3D')
);
#1050=(
LENGTH_UNIT()
NAMED_UNIT(*)
SI_UNIT(.MILLI.,.METRE.)
);
#1051=(
LENGTH_UNIT()
NAMED_UNIT(*)
SI_UNIT($,.METRE.)
);
#1052=(
NAMED_UNIT(*)
PLANE_ANGLE_UNIT()
SI_UNIT($,.RADIAN.)
);
#1053=(
NAMED_UNIT(*)
SI_UNIT($,.STERADIAN.)
SOLID_ANGLE_UNIT()
);
#1054=SHAPE_DEFINITION_REPRESENTATION(#1061,#1074);
#1055=SHAPE_DEFINITION_REPRESENTATION(#1062,#1075);
#1056=SHAPE_DEFINITION_REPRESENTATION(#1063,#1076);
#1057=SHAPE_DEFINITION_REPRESENTATION(#1064,#1077);
#1058=SHAPE_DEFINITION_REPRESENTATION(#1065,#1078);
#1059=SHAPE_DEFINITION_REPRESENTATION(#1066,#1079);
#1060=SHAPE_DEFINITION_REPRESENTATION(#1067,#1080);
#1061=PRODUCT_DEFINITION_SHAPE('',$,#1082);
#1062=PRODUCT_DEFINITION_SHAPE('',$,#1083);
#1063=PRODUCT_DEFINITION_SHAPE('',$,#1084);
#1064=PRODUCT_DEFINITION_SHAPE('',$,#1085);
#1065=PRODUCT_DEFINITION_SHAPE('',$,#1086);
#1066=PRODUCT_DEFINITION_SHAPE('',$,#1087);
#1067=PRODUCT_DEFINITION_SHAPE('',$,#1088);
#1068=PRODUCT_DEFINITION_SHAPE($,$,#29);
#1069=PRODUCT_DEFINITION_SHAPE($,$,#30);
#1070=PRODUCT_DEFINITION_SHAPE($,$,#31);
#1071=PRODUCT_DEFINITION_SHAPE($,$,#32);
#1072=PRODUCT_DEFINITION_SHAPE($,$,#33);
#1073=PRODUCT_DEFINITION_SHAPE($,$,#34);
#1074=SHAPE_REPRESENTATION('',(#646,#699,#700,#701,#702,#703,#704),#1042);
#1075=SHAPE_REPRESENTATION('',(#647),#1043);
#1076=SHAPE_REPRESENTATION('',(#657),#1044);
#1077=SHAPE_REPRESENTATION('',(#667),#1045);
#1078=SHAPE_REPRESENTATION('',(#680),#1046);
#1079=SHAPE_REPRESENTATION('',(#686),#1047);
#1080=SHAPE_REPRESENTATION('',(#692),#1048);
#1081=PRODUCT_DEFINITION_CONTEXT('part definition',#1104,'design');
#1082=PRODUCT_DEFINITION('2026-07-02-13-33-07-253','2_link',#1089,#1081);
#1083=PRODUCT_DEFINITION('2026-07-02-13-33-38-668','Base',#1090,#1081);
#1084=PRODUCT_DEFINITION('2026-07-02-13-40-15-528','Link2',#1091,#1081);
#1085=PRODUCT_DEFINITION('2026-07-02-13-36-46-129','Link1',#1092,#1081);
#1086=PRODUCT_DEFINITION('2026-07-02-14-20-23-472','Pin1',#1093,#1081);
#1087=PRODUCT_DEFINITION('2026-07-02-14-24-53-091','Pin2',#1094,#1081);
#1088=PRODUCT_DEFINITION('2026-07-02-20-09-42-335','Stop',#1095,#1081);
#1089=PRODUCT_DEFINITION_FORMATION('',$,#1106);
#1090=PRODUCT_DEFINITION_FORMATION('',$,#1107);
#1091=PRODUCT_DEFINITION_FORMATION('',$,#1108);
#1092=PRODUCT_DEFINITION_FORMATION('',$,#1109);
#1093=PRODUCT_DEFINITION_FORMATION('',$,#1110);
#1094=PRODUCT_DEFINITION_FORMATION('',$,#1111);
#1095=PRODUCT_DEFINITION_FORMATION('',$,#1112);
#1096=PRODUCT_RELATED_PRODUCT_CATEGORY('2_link','2_link',(#1106));
#1097=PRODUCT_RELATED_PRODUCT_CATEGORY('Base','Base',(#1107));
#1098=PRODUCT_RELATED_PRODUCT_CATEGORY('Link2','Link2',(#1108));
#1099=PRODUCT_RELATED_PRODUCT_CATEGORY('Link1','Link1',(#1109));
#1100=PRODUCT_RELATED_PRODUCT_CATEGORY('Pin1','Pin1',(#1110));
#1101=PRODUCT_RELATED_PRODUCT_CATEGORY('Pin2','Pin2',(#1111));
#1102=PRODUCT_RELATED_PRODUCT_CATEGORY('Stop','Stop',(#1112));
#1103=APPLICATION_PROTOCOL_DEFINITION('international standard',
'automotive_design',2009,#1104);
#1104=APPLICATION_CONTEXT(
'Core Data for Automotive Mechanical Design Process');
#1105=PRODUCT_CONTEXT('part definition',#1104,'mechanical');
#1106=PRODUCT('2026-07-02-13-33-07-253','2_link',$,(#1105));
#1107=PRODUCT('2026-07-02-13-33-38-668','Base',$,(#1105));
#1108=PRODUCT('2026-07-02-13-40-15-528','Link2',$,(#1105));
#1109=PRODUCT('2026-07-02-13-36-46-129','Link1',$,(#1105));
#1110=PRODUCT('2026-07-02-14-20-23-472','Pin1',$,(#1105));
#1111=PRODUCT('2026-07-02-14-24-53-091','Pin2',$,(#1105));
#1112=PRODUCT('2026-07-02-20-09-42-335','Stop',$,(#1105));
#1113=PRESENTATION_STYLE_ASSIGNMENT((#1114));
#1114=SURFACE_STYLE_USAGE(.BOTH.,#1115);
#1115=SURFACE_SIDE_STYLE('',(#1116));
#1116=SURFACE_STYLE_FILL_AREA(#1117);
#1117=FILL_AREA_STYLE('Steel - Satin',(#1118));
#1118=FILL_AREA_STYLE_COLOUR('Steel - Satin',#1119);
#1119=COLOUR_RGB('Steel - Satin',0.627450980392157,0.627450980392157,0.627450980392157);
ENDSEC;
END-ISO-10303-21;
